PathFileType	4	(X/Y/Z)	c:/Users/goper/Files/vsCode/490R/osim_files/C17/C17_SSWS_05.trc
DataRate	CameraRate	NumFrames	NumMarkers	Units                	OrigDataRate	OrigDataStartFrame	OrigNumFrames
250.00	250.00	4	36	mm	250.0	1610	2146
                Frame#	Time	LPSIS			LASIS			LTH1			LTH2			LTH3			LTH4			LLFE			LMFE			LSH1			LSH2			LSH3			LSH4			LLMAL			LMMAL			LCAL			LMTP5			LTOE			LMTP1			RPSIS			RASIS			RTH1			RTH2			RTH3			RTH4			RLFE			RMFE			RSH1			RSH2			RSH3			RSH4			RLMAL			RMMAL			RCAL			RMTP1			RTOE			RMTP5		
		X1	Y1	Z1	X2	Y2	Z2	X3	Y3	Z3	X4	Y4	Z4	X5	Y5	Z5	X6	Y6	Z6	X7	Y7	Z7	X8	Y8	Z8	X9	Y9	Z9	X10	Y10	Z10	X11	Y11	Z11	X12	Y12	Z12	X13	Y13	Z13	X14	Y14	Z14	X15	Y15	Z15	X16	Y16	Z16	X17	Y17	Z17	X18	Y18	Z18	X19	Y19	Z19	X20	Y20	Z20	X21	Y21	Z21	X22	Y22	Z22	X23	Y23	Z23	X24	Y24	Z24	X25	Y25	Z25	X26	Y26	Z26	X27	Y27	Z27	X28	Y28	Z28	X29	Y29	Z29	X30	Y30	Z30	X31	Y31	Z31	X32	Y32	Z32	X33	Y33	Z33	X34	Y34	Z34	X35	Y35	Z35	X36	Y36	Z36

1610	6.43600	-2465.44531	1055.29053	278.66772	-2658.22485	1002.79657	387.72003	-2563.73047	672.33521	417.74518	-2573.12280	627.62085	414.48865	-2622.35620	685.24414	426.68188	-2626.52490	638.98206	421.68997	-2570.99634	479.63049	402.52136	-2597.09570	466.79230	278.81003	-2394.45044	336.50375	396.03586	-2356.92725	316.54245	392.39282	-2361.99463	389.69424	394.81442	-2327.63037	362.74789	390.88153	-2219.77710	263.80453	370.63126	-2239.85376	258.76721	285.80389	-2173.37329	330.60916	326.25089	-2178.17480	131.44817	369.55588	-2224.50562	92.21537	306.60089	-2201.33301	109.34113	257.72687	-2466.54614	1055.87085	205.12389	0.00000	0.00000	0.00000	-2687.66675	747.79877	65.98894	-2708.76221	703.14252	76.35290	-2743.54883	767.04486	77.96677	-2753.89185	720.78961	82.13389	-2798.02466	504.63489	115.20576	-2774.43799	523.73767	236.20250	-2734.30859	301.29099	117.14867	0.00000	0.00000	0.00000	-2798.46362	309.12283	133.11194	-2790.60254	261.14624	147.79462	-2738.96289	100.04853	183.59760	-2764.41260	121.42409	269.70697	-2673.83789	60.06572	232.56468	-2907.00195	62.01346	277.16583	-2921.44360	90.22930	232.73877	-2865.63965	53.45859	163.18738
1611	6.44000	0.00000	0.00000	0.00000	-2657.01074	1000.98517	385.46719	-2573.39893	672.90424	417.53677	-2583.34277	628.33569	414.26013	-2631.72339	686.47943	426.46445	-2636.38843	639.96222	421.77802	-2583.27515	481.01675	402.77548	-2607.20972	468.14072	279.00751	-2406.25732	338.19028	396.17554	-2369.04492	318.32391	392.46417	-2375.44873	392.70389	394.72067	-2339.44189	364.67398	391.23456	-2231.18042	266.10028	370.96964	-2251.48608	260.97211	286.12100	-2183.78833	332.06891	326.49210	-2191.68555	133.21861	370.62137	-2238.65820	94.42325	307.85370	-2215.14966	110.68965	258.52411	-2471.96875	1057.26538	204.62218	0.00000	0.00000	0.00000	-2691.39087	748.48444	65.46459	-2712.35962	703.63550	75.83923	-2747.41211	767.23645	77.32822	-2757.36548	720.99390	81.49946	-2799.94214	504.34799	114.66264	-2776.01978	523.76758	235.66788	-2734.90210	301.40433	117.05336	0.00000	0.00000	0.00000	-2794.29810	306.20935	133.66330	-2791.11768	260.93259	147.47047	-2739.09448	100.09055	183.65323	-2764.51831	121.47559	269.66098	-2673.94775	60.18044	232.56082	-2906.99463	61.77165	277.32434	-2921.51294	90.03240	232.93979	-2865.68774	53.44903	163.17615
1612	6.44400	-2476.66626	1057.87415	277.66168	-2662.71582	1002.42957	384.98108	0.00000	0.00000	0.00000	-2593.35571	629.15320	414.03586	-2641.02295	687.75665	426.22870	-2646.35010	641.37866	421.70029	-2595.06787	482.29800	402.97409	-2617.80078	469.21399	278.72839	-2418.04517	340.06726	396.30264	-2380.45825	320.16473	392.58411	-2387.45679	394.54547	395.20178	-2351.38770	366.46500	391.68896	-2242.95166	268.10358	371.20068	-2263.05664	263.00629	286.32303	-2194.22339	333.13474	326.66974	-2205.76733	134.77646	371.70322	-2253.20728	96.39056	308.87375	-2229.25024	112.28735	259.88840	-2477.64160	1058.71167	204.12560	0.00000	0.00000	0.00000	-2695.06372	749.02203	65.00099	-2715.90527	704.06342	75.36458	-2751.61694	767.07257	76.75505	-2760.80005	721.06989	80.89597	-2806.52222	506.39700	113.34106	-2777.51099	523.94641	235.23012	-2735.59155	301.57431	117.31889	0.00000	0.00000	0.00000	-2799.97095	308.70349	132.42354	-2795.93408	263.09702	146.40300	-2739.21460	100.12766	183.67143	-2764.61426	121.52730	269.60672	-2673.99780	60.25224	232.58229	-2907.01758	61.65509	277.45697	-2921.50952	89.80993	233.06125	-2865.72778	53.47666	163.17802
1613	6.44800	0.00000	0.00000	0.00000	-2674.97461	1006.84259	386.22858	-2592.65259	674.48853	416.77554	-2603.51855	630.13190	413.72028	-2650.44116	689.27271	425.98746	-2656.30688	643.23029	421.38840	-2607.28906	483.91782	403.13257	-2628.84082	470.83777	278.81271	-2430.00781	341.84659	396.41809	-2392.46216	321.93747	392.68362	-2399.25342	396.36691	395.66312	-2363.14478	368.47702	391.99683	-2254.71899	269.96857	371.35977	-2274.77930	264.92764	286.51501	-2204.61768	333.89697	326.72913	-2220.17090	136.03833	372.72107	-2268.21460	98.11839	309.97006	-2243.63940	113.36626	260.93256	-2483.40332	1060.09387	203.62633	0.00000	0.00000	0.00000	-2698.72241	749.60846	64.48769	-2719.32642	704.42474	74.88940	-2754.78564	768.02075	75.00063	-2764.25024	721.23651	80.42452	-2803.43164	503.79468	113.67883	-2779.00562	524.23254	234.78831	-2736.02979	301.65762	116.67921	0.00000	0.00000	0.00000	-2795.57544	305.74387	132.95691	-2792.04761	260.49106	146.78600	-2739.30640	100.13854	183.66873	-2764.67383	121.56844	269.54962	-2673.33496	60.70768	232.95952	0.00000	0.00000	0.00000	-2921.50122	89.62620	233.18904	-2865.73511	53.47448	163.19525
